<?xml version="1.0" encoding="UTF-8"?><svg id="Layer_2" xmlns="http://www.w3.org/2000/svg" viewBox="0 0 445.07 392.1"><defs><style>.cls-1{fill:none;stroke:#000;stroke-miterlimit:10;}.cls-2{fill:red;}</style></defs><g id="Layer_1-2"><g id="Layer_2-2"><g id="Layer_2-2"><path d="M81.45,30.21H34.22L226.13,356.63,369.85,103.02c-.32-.17-.63-.36-.92-.57l-.13,.54h-40.59l-102.08,178.71L81.45,30.21Zm306.98,39.95l22.64-39.95H118.47l107.66,185.41,22.68-39.82-22.68-35.98h42.19l22.82-34.56h-87.2l-17.91-35.05,202.4-.05ZM419.8,.69c13.51,0,24.46,10.95,24.47,24.46,0,4.23-1.09,8.38-3.18,12.06L247.51,378.79c-6.66,11.76-21.59,15.89-33.34,9.23-3.74-2.12-6.86-5.19-9.04-8.89L4.26,37.55C-2.61,25.93,1.25,10.93,12.87,4.06,16.65,1.83,20.96,.65,25.34,.66l394.45,.04Z"/><polygon class="cls-2" points="411.11 30.21 388.47 70.16 186.06 70.16 203.97 105.22 291.14 105.22 268.32 139.8 226.13 139.8 248.81 175.77 226.13 215.6 118.48 30.21 118.62 30.21 411.11 30.21"/><path class="cls-2" d="M369.85,103.02l-143.72,253.61L34.22,30.21h47.28l144.64,251.49,102.15-178.71h40.59l.13-.54c.27,.21,.55,.4,.85,.57Z"/><path class="cls-1" d="M420.1,.5H24.99C11.48,.48,.52,11.42,.5,24.93c0,4.38,1.17,8.69,3.4,12.46L205.1,379.53c6.85,11.65,21.84,15.54,33.49,8.69,3.71-2.18,6.77-5.29,8.89-9.04L441.38,37.03c6.66-11.75,2.54-26.68-9.22-33.35-3.68-2.09-7.84-3.18-12.07-3.18Z"/></g></g></g></svg>